<?xml version="1.0" standalone="no"?>
<!DOCTYPE svg PUBLIC "-//W3C//DTD SVG 1.1//EN" "http://www.w3.org/Graphics/SVG/1.1/DTD/svg11.dtd" >
<svg xmlns="http://www.w3.org/2000/svg" xmlns:xlink="http://www.w3.org/1999/xlink" version="1.1">
<metadata></metadata>
<defs>
<font id="druk_text_widebold" horiz-adv-x="2064" >
<font-face units-per-em="2048" ascent="1649" descent="-399" />
<missing-glyph horiz-adv-x="606" />
<glyph horiz-adv-x="0" />
<glyph horiz-adv-x="0" />
<glyph unicode="&#xd;" horiz-adv-x="681" />
<glyph unicode=" "  horiz-adv-x="606" />
<glyph unicode="&#x09;" horiz-adv-x="606" />
<glyph unicode="&#xa0;" horiz-adv-x="606" />
<glyph unicode="!" horiz-adv-x="831" d="M131 1524h567l-170 -1000h-225zM166 0v401h502v-401h-502z" />
<glyph unicode="," horiz-adv-x="790" d="M131 0v428h528v-330q0 -111 -41 -229q-29 -86 -79 -174h-297q43 70 78.5 154.5t50.5 150.5h-240z" />
<glyph unicode="-" horiz-adv-x="985" d="M141 428v373h703v-373h-703z" />
<glyph unicode="." horiz-adv-x="790" d="M131 0v428h528v-428h-528z" />
<glyph unicode="0" horiz-adv-x="2125" d="M119 735v62q0 176 65 323q84 188 265 297q219 131 569 131h90q352 0 571 -131q182 -113 265 -299q63 -150 63 -321v-62q0 -170 -65 -319q-84 -195 -265 -305q-219 -135 -569 -136h-90q-350 0 -569 136q-180 111 -265 305q-66 150 -65 319zM629 756q0 -61 17.5 -127 t60.5 -121q115 -147 358 -148q248 0 358 148q74 98 74 248v26q0 143 -76 242q-111 143 -358 143q-254 0 -361 -143q-74 -98 -73 -242v-26z" />
<glyph unicode="1" horiz-adv-x="1140" d="M100 946v334q229 0 336 53q55 27 90 72t60 119h368v-1524h-485v946h-369z" />
<glyph unicode="2" horiz-adv-x="1906" d="M121 0v244q0 98 20.5 175t79.5 146q143 164 539 275l121 32l110 31q152 37 213 76q29 18 39 37.5t10 46.5v2q0 61 -53 94q-68 39 -235 39q-188 0 -263 -82q-47 -49 -51 -135h-504v14q0 129 50 234q66 139 219 219q188 96 491 96h103q418 0 600 -137q158 -119 157 -342 v-16q0 -104 -35.5 -178t-111.5 -128q-74 -53 -194.5 -92t-299.5 -71l-122 -25q-195 -39 -295 -68q-74 -23 -107 -38q-39 -18 -49 -33q-12 -14 -12 -29h1259v-387h-1679z" />
<glyph unicode="3" horiz-adv-x="1927" d="M94 506v22h508q6 -61 57 -106q84 -76 289 -76q217 0 299 55q59 37 60 105v2q0 55 -42 86t-147 31h-469v327h467q94 0 137 33q33 25 33 74q0 29 -10 51.5t-43 40.5t-103 31q-70 12 -188 12q-119 0 -184 -18q-119 -33 -137 -93q-4 -8 -11 -36h-495v24q0 98 43 184 q59 121 213 197q184 92 495 92h119q453 0 647 -131q139 -94 140 -258v-14q0 -109 -74 -187q-59 -63 -166 -92q121 -27 197 -106q92 -96 92 -244v-12q0 -221 -154 -348q-209 -174 -680 -175h-96q-322 0 -518 101q-154 78 -228 219q-51 98 -51 209z" />
<glyph unicode="4" horiz-adv-x="1986" d="M100 309v297l848 928h623v-868h336v-357h-336v-309h-484v309h-987zM586 666h501v553z" />
<glyph unicode="5" horiz-adv-x="1875" d="M141 436v27h512q4 -39 58 -70q80 -49 252 -49q170 0 254 53q68 43 67 119v10q0 80 -67 119q-78 45 -254 45q-174 0 -252 -41q-31 -16 -45 -35q-12 -14 -17 -28h-485v938h1501v-365h-1018v-266l39 27q72 45 219 75q86 16 191 17h22q360 0 529 -154q125 -119 125 -321v-25 q0 -215 -144 -350q-199 -184 -629 -185h-84q-313 0 -507 91q-150 70 -220 190q-47 82 -47 178z" />
<glyph unicode="6" horiz-adv-x="2004" d="M119 729v49q0 158 55 305q76 201 244 316q209 143 549 143h71q455 0 656 -162q147 -121 147 -309v-2h-500q-18 49 -63 76q-86 51 -262 51q-227 0 -328 -133q-68 -86 -67 -223v-15l49 37q82 53 256 84q102 16 229 17h37q375 0 553 -132q152 -111 151 -296v-35 q0 -207 -145 -340q-203 -182 -672 -183h-104q-348 0 -555 138q-176 113 -246 303q-55 141 -55 311zM670 492q0 -72 65 -113q86 -55 295 -55q219 0 303 59q59 39 60 106v9q0 68 -66 106q-88 53 -297 53t-295 -53q-66 -39 -65 -106v-6z" />
<glyph unicode="7" horiz-adv-x="1843" d="M129 905v619h1612v-342l-31 -43q-207 -297 -289 -424q-137 -215 -182 -381q-20 -72 -26.5 -140.5t-6.5 -160.5v-33h-532v143q0 98 9 169t38 139q31 74 92 156.5t166 193.5q168 172 231 239q35 35 72 80q27 29 27 41h-699v-256h-481z" />
<glyph unicode="8" horiz-adv-x="1974" d="M106 434v23q0 68 28 126t79 103q96 88 246 113q-131 23 -217 100q-45 41 -71 93t-26 114v20q0 104 45 177q68 109 220 163q195 72 532 72h88q336 0 535 -72q158 -57 221 -161q43 -72 43 -179v-20q0 -123 -94 -207q-86 -78 -217 -100q152 -25 247 -113q49 -43 75 -102.5 t26 -126.5v-23q0 -111 -49 -192q-72 -119 -236 -185q-209 -82 -551 -82h-88q-496 0 -700 168q-135 111 -136 291zM621 475q0 -61 63 -100q80 -53 301 -53t305 53q61 39 62 100v4q0 68 -62 103q-84 47 -305 47q-223 0 -303 -47q-61 -35 -61 -103v-4zM657 1079q0 -55 58 -86 q78 -41 270 -41q195 0 272 41q33 16 44.5 38t11.5 48v6q0 57 -56 86q-82 43 -272 43t-272 -43q-55 -29 -56 -86v-6z" />
<glyph unicode="9" horiz-adv-x="2004" d="M109 999v33q0 207 147 334q201 176 662 176h118q342 0 551 -133q170 -111 244 -301q55 -141 55 -313v-47q0 -164 -53 -312q-70 -197 -240 -315q-205 -143 -544 -144h-82q-309 0 -508 82q-162 68 -236 187q-57 92 -57 200v3h498q4 -14 14 -31q27 -49 141 -78 q66 -16 170 -16q227 0 330 131q66 88 65 225v14q-4 -2 -38.5 -28.5t-106.5 -53.5q-152 -55 -389 -55h-37q-377 0 -553 133q-152 115 -151 309zM612 1022q0 -68 66 -107q88 -53 295 -53q211 0 299 53q63 39 63 107v6q0 70 -65 111q-90 57 -297 57q-215 0 -301 -57 q-59 -43 -60 -109v-8z" />
<glyph unicode=":" horiz-adv-x="811" d="M141 0v428h528v-428h-528zM141 678v428h528v-428h-528z" />
<glyph unicode=";" horiz-adv-x="811" d="M141 0v428h528v-330q0 -111 -41 -229q-29 -86 -79 -174h-297q43 70 78.5 154.5t50.5 150.5h-240zM141 678v428h528v-428h-528z" />
<glyph unicode="?" horiz-adv-x="1734" d="M80 1028v27q0 121 41 207q57 127 203 194q182 86 487 86h100q410 0 594 -135q141 -106 142 -295v-18q0 -147 -88 -238q-90 -96 -304 -158l-102 -30q-72 -23 -94 -47q-25 -25 -25 -78v-19h-459v90q0 66 12.5 112t43.5 85q33 39 92 71.5t156 63.5l108 35q98 31 129 57 q31 25 31 64q0 51 -49 78q-61 31 -230 30q-180 0 -245 -69q-25 -27 -32 -53.5t-9 -59.5h-502zM555 0v401h502v-401h-502z" />
<glyph unicode="A" d="M6 0l692 1524h645l715 -1524h-522l-119 264h-805l-116 -264h-490zM762 600h506l-256 569z" />
<glyph unicode="B" horiz-adv-x="2107" d="M180 0v1524h1194q301 0 443 -111q115 -92 114 -248v-18q0 -135 -100 -221q-43 -35 -92 -56.5t-97 -27.5q154 -27 248 -103q121 -100 121 -274v-21q0 -197 -131 -307q-158 -137 -502 -137h-1198zM670 354h633q100 0 145 45q35 33 35 93v8q0 59 -35 88q-43 37 -145 37h-633 v-271zM670 940h594q160 0 159 121v4q0 57 -35.5 89t-123.5 32h-594v-246z" />
<glyph unicode="C" horiz-adv-x="2131" d="M113 735v62q0 176 73 331q90 190 275 295q221 125 569 125h94q492 0 721 -205q94 -84 136 -190t42 -221v-10h-503q-6 27 -17 55q-14 43 -62 84t-130 72q-82 32 -225 32h-9q-248 0 -362 -125q-92 -100 -92 -258v-26q0 -68 22.5 -135.5t71.5 -122.5q121 -135 362 -136 q252 0 365 109q43 39 59 84q10 29 17 55h503v-12q0 -147 -71 -276q-84 -152 -273 -242q-219 -104 -555 -105h-94q-348 0 -567 129q-190 113 -277 299q-74 156 -73 332z" />
<glyph unicode="D" horiz-adv-x="2125" d="M180 0v1524h840q553 0 805 -234q193 -182 192 -481v-61q0 -197 -69 -342q-88 -184 -293 -287q-238 -119 -633 -119h-842zM670 367h307q319 0 446 137q84 92 84 258v12q0 164 -84 252q-129 133 -446 133h-307v-792z" />
<glyph unicode="E" horiz-adv-x="1796" d="M180 0v1524h1460v-350h-974v-222h944v-362h-944v-236h987v-354h-1473z" />
<glyph unicode="F" horiz-adv-x="1761" d="M180 0v1524h1448v-359h-960v-247h931v-367h-931v-551h-488z" />
<glyph unicode="G" horiz-adv-x="2209" d="M113 743v50q0 184 80 342q90 186 284 290q227 121 572 121h69q492 0 733 -188q96 -76 140.5 -171t44.5 -192v-6h-510l-23 45q-45 72 -196 113q-82 22 -211 22h-11q-248 0 -368 -120q-96 -98 -96 -267v-24q0 -74 24.5 -144.5t77.5 -126.5q123 -133 371 -133q223 0 342 86 q70 53 88 123h-426v279h956v-842h-364q-4 41 -23 102q-8 29 -39 101q-76 -84 -168 -131q-180 -94 -420 -95h-34q-467 0 -703 254q-98 104 -144 238.5t-46 273.5z" />
<glyph unicode="H" horiz-adv-x="2148" d="M180 0v1524h490v-551h809v551h489v-1524h-489v594h-809v-594h-490z" />
<glyph unicode="I" horiz-adv-x="849" d="M180 0v1524h490v-1524h-490z" />
<glyph unicode="J" horiz-adv-x="1843" d="M76 659v11h497q4 -106 56 -185q71 -112 232 -112h3h8q168 0 248 104q63 86 64 242v805h489v-817q0 -176 -53 -316q-72 -188 -223 -291q-188 -125 -490 -125h-73q-298 0 -480 119q-154 98 -223 268q-55 135 -55 297z" />
<glyph unicode="K" horiz-adv-x="1957" d="M180 0v1524h488v-609l669 609h594l-772 -693l815 -831h-626l-680 698v-698h-488z" />
<glyph unicode="L" horiz-adv-x="1691" d="M180 0v1524h490v-1127h921v-397h-1411z" />
<glyph unicode="M" horiz-adv-x="2562" d="M180 0v1524h664l448 -949l459 949h631v-1524h-479v973l-457 -973h-340l-455 973v-973h-471z" />
<glyph unicode="N" horiz-adv-x="2191" d="M180 0v1524h500l856 -914v914h475v-1524h-473l-881 930v-930h-477z" />
<glyph unicode="O" horiz-adv-x="2213" d="M113 735v62q0 190 77 340q92 184 287 288q225 123 584 123h92q356 0 586 -123q190 -104 286 -288q76 -152 76 -340v-62q0 -133 -44 -264t-142 -235q-246 -260 -762 -261h-92q-356 0 -584 127q-197 109 -287 295q-78 154 -77 338zM623 754q0 -158 94 -258 q125 -135 391 -136q274 0 395 136q88 98 88 258v26q0 160 -88 256q-121 131 -395 131q-270 0 -395 -131q-90 -96 -90 -256v-26z" />
<glyph unicode="P" horiz-adv-x="2027" d="M180 0v1524h1073q371 0 535 -144q139 -123 139 -366v-25q0 -246 -141 -371q-168 -147 -533 -147h-583v-471h-490zM670 836h542q207 0 207 159v6q0 156 -207 156h-542v-321z" />
<glyph unicode="Q" horiz-adv-x="2215" d="M113 735v62q0 180 73 333q92 190 283 293q229 125 594 125h90q362 0 596 -125q193 -104 283 -293q71 -148 71 -328v-5v-62q0 -115 -31.5 -230.5t-105.5 -211.5q-186 -246 -573 -301l252 -309h-730v299q-440 35 -645 290q-84 102 -120.5 222t-36.5 241zM621 754 q0 -156 92 -258q123 -137 395 -138q268 0 395 138q90 98 90 258v26q0 158 -88 254q-123 133 -397 133q-272 0 -397 -131q-90 -96 -90 -256v-26z" />
<glyph unicode="R" horiz-adv-x="2097" d="M180 0v1524h1131q379 0 534 -138q106 -96 107 -274v-18q0 -143 -99 -242q-90 -90 -233 -119q164 -31 248 -117q96 -100 96 -262v-198q0 -76 8 -101q6 -29 17 -45v-10h-506q-6 20 -8 31q-4 29 -5 69v127q0 76 -14 127.5t-47 81.5q-66 59 -225 60h-514v-496h-490zM670 870 h575q109 0 158 43q39 33 39 103v4q0 66 -39 98q-51 41 -158 41h-575v-289z" />
<glyph unicode="S" horiz-adv-x="1959" d="M115 487v19h528q4 -76 57 -123q84 -76 279 -76h12q199 0 281 51q33 20 44 47t11 62q0 33 -12 56.5t-43 41.5q-70 41 -244 43l-209 6q-377 12 -543 146q-143 113 -143 309v18q0 213 156 324q193 133 641 133h78q477 0 669 -151q139 -111 140 -312v-16h-521q-6 31 -18 55.5 t-43 46.5q-78 53 -260 54h-19q-180 0 -254 -35q-33 -16 -46 -38t-13 -52q0 -59 55 -88q68 -41 228 -43l215 -7q395 -12 565 -135q74 -55 105.5 -134t31.5 -183v-25q0 -139 -53 -235q-72 -125 -240 -193q-199 -80 -534 -80h-55q-356 0 -560 90q-166 74 -237 205 q-49 90 -49 219z" />
<glyph unicode="T" horiz-adv-x="1875" d="M94 1139v385h1688v-385h-600v-1139h-488v1139h-600z" />
<glyph unicode="U" horiz-adv-x="2160" d="M172 774v750h487v-744q0 -166 74 -264q96 -135 346 -135h11q248 0 344 135q70 96 69 264v744h488v-750q0 -193 -54 -340q-74 -205 -247 -317q-217 -139 -576 -140h-59q-373 1 -590 140q-170 109 -244 317q-49 139 -49 340z" />
<glyph unicode="V" horiz-adv-x="2070" d="M12 1524h568l479 -1086l479 1086h520l-696 -1524h-623z" />
<glyph unicode="W" horiz-adv-x="2834" d="M20 1524h525l315 -1049l309 1049h541l307 -1051l316 1051h481l-508 -1524h-577l-310 1008l-307 -1008h-569z" />
<glyph unicode="X" horiz-adv-x="1998" d="M4 0l645 782l-626 742h612l383 -461l383 461h559l-612 -740l647 -784h-588l-412 492l-415 -492h-576z" />
<glyph unicode="Y" horiz-adv-x="1978" d="M-18 1524h600l438 -572l440 572h537l-752 -975v-549h-487v551z" />
<glyph unicode="Z" horiz-adv-x="1914" d="M145 0v322l910 819h-903v383h1611v-320l-948 -817h957v-387h-1627z" />
<glyph unicode="a" horiz-adv-x="1660" d="M98 342v8q0 162 113 240q117 84 410 108l317 25q47 4 65.5 20.5t18.5 47.5v2q0 49 -35 69q-51 31 -178 31h-6q-129 0 -176 -43q-33 -31 -33 -72h-467v2q0 90 37 160q55 102 178 158q162 69 421 69h7h66q393 0 544 -133q57 -51 77 -114.5t20 -141.5v-364q0 -45 14 -62.5 t59 -17.5h54v-334h-377q-76 0 -131 51q-43 37 -62 99q-61 -66 -133 -105q-127 -68 -307 -68h-35q-227 0 -348 107q-55 49 -84 115.5t-29 142.5zM561 356q0 -51 43 -80.5t131 -29.5q143 0 223 76q33 31 48.5 68.5t15.5 72.5v72q-72 -18 -229 -46q-137 -23 -183 -49 q-49 -27 -49 -80v-4z" />
<glyph unicode="b" horiz-adv-x="1792" d="M160 0v1550h465v-546q59 59 149 98q139 61 309 61h25q303 0 455 -180q66 -76 96.5 -177t30.5 -212v-33q0 -104 -32 -206.5t-95 -182.5q-156 -195 -473 -195h-25q-172 0 -311 66q-78 37 -144 102q-18 -53 -30 -145h-420zM621 569q0 -47 15 -94t46 -84q76 -90 225 -90h19 q152 0 223 94q55 72 55 174v9q0 102 -55 174q-70 90 -223 90h-19q-78 0 -134 -24.5t-91 -63.5q-31 -37 -46 -84t-15 -92v-9z" />
<glyph unicode="c" horiz-adv-x="1703" d="M100 561v29q0 98 30 196.5t99 178.5q181 206 578 206h4h88q279 0 461 -88q141 -70 201 -192q45 -92 45 -195v-2h-486q-6 51 -49 92q-72 68 -205 68h-18q-141 0 -209 -88q-55 -70 -55 -186v-2q0 -115 57 -193q68 -94 211 -94h18q141 0 205 74q23 27 34 53t11 43h486 q0 -111 -45 -203q-59 -127 -199 -199q-174 -90 -449 -90h-100q-406 0 -584 211q-70 84 -99.5 183.5t-29.5 197.5z" />
<glyph unicode="d" horiz-adv-x="1792" d="M104 549v41q0 109 34 211t102 180q162 182 465 182h24q162 0 299 -51q63 -23 99 -50.5t40 -31.5v520h465v-1550h-465v141q-45 -55 -131 -98q-131 -66 -303 -66h-24q-305 0 -465 181q-72 78 -106 179t-34 212zM586 569q0 -102 57 -174q76 -94 223 -94h21q145 0 221 90 q31 37 46 84t15 94v6q0 47 -15 94.5t-46 84.5q-74 88 -221 88h-21q-152 0 -223 -90q-57 -68 -57 -177v-6z" />
<glyph unicode="e" horiz-adv-x="1730" d="M100 555v29q0 242 140 391q177 192 567 192h4h90q424 0 600 -200q74 -86 102.5 -198t28.5 -247v-41h-1054q16 -100 86 -155q76 -59 231 -60q135 0 199 41q27 14 36 33l13 25h485q-4 -82 -47 -152q-59 -102 -203 -164q-180 -78 -456 -78h-84q-410 0 -594 195 q-143 150 -144 389zM584 705h553q0 80 -52 124q-72 61 -223 62q-133 0 -196.5 -48t-81.5 -138z" />
<glyph unicode="f" horiz-adv-x="1101" d="M76 825v316h243v73q0 84 17.5 145.5t56.5 102.5q84 88 293 88h338v-264h-160q-45 0 -65.5 -20.5t-20.5 -67.5v-57h246v-316h-246v-825h-459v825h-243z" />
<glyph unicode="g" horiz-adv-x="1792" d="M104 586v35q0 104 33 201.5t101 170.5q156 170 462 170h23q178 0 309 -51q61 -25 96 -52.5t41 -31.5v113h463v-1012q0 -254 -149 -391q-174 -158 -553 -158h-66q-414 0 -581 139q-113 92 -113 238v8h504q14 -31 49 -47q53 -29 172 -29h20q133 0 194.5 59.5t61.5 162.5v79 q-59 -59 -129 -92q-127 -59 -303 -59h-28q-315 0 -475 176q-68 74 -100 171t-32 200zM586 600q0 -96 59 -162q74 -84 225 -84h21q147 0 221 80q61 68 62 162v8q0 96 -62 164q-76 80 -223 80h-19q-154 0 -227 -80q-57 -66 -57 -164v-4z" />
<glyph unicode="h" horiz-adv-x="1757" d="M160 0v1550h465v-585q59 74 155 127q145 77 312 77h4h20q121 0 213 -36.5t156 -100.5q57 -59 87 -136t30 -159v-737h-465v582q0 106 -58 166q-69 69 -189 69h-3q-127 0 -197 -76q-66 -72 -65 -176v-565h-465z" />
<glyph unicode="i" horiz-adv-x="784" d="M158 1255v299h469v-299h-469zM160 0v1141h465v-1141h-465z" />
<glyph unicode="j" horiz-adv-x="784" d="M-31 -72h115q43 0 59.5 19.5t16.5 64.5v1129h465v-1227q0 -145 -66.5 -224t-196.5 -79h-393v317zM158 1255v299h469v-299h-469z" />
<glyph unicode="k" horiz-adv-x="1558" d="M160 0v1550h465v-852l368 443h520l-448 -512l500 -629h-537l-403 512v-512h-465z" />
<glyph unicode="l" horiz-adv-x="784" d="M160 0v1550h465v-1550h-465z" />
<glyph unicode="m" horiz-adv-x="2641" d="M160 0v1141h461v-183q59 78 145 132q129 79 297 79h4h14q156 0 271 -67q94 -55 149 -162q74 96 189 156q135 73 297 73h4h16q250 0 375 -145q53 -61 78.5 -142t25.5 -165v-717h-465v590q0 94 -51 158q-58 69 -175 69h-3q-115 0 -178 -74q-59 -66 -60 -174v-569h-462v590 q0 100 -50 158q-62 69 -177 69h-3q-117 0 -178 -72q-59 -66 -59 -176v-569h-465z" />
<glyph unicode="n" horiz-adv-x="1757" d="M160 0v1141h461v-180q63 78 157 129q145 79 314 79h4h20q121 0 213 -36.5t156 -100.5q57 -59 87 -136t30 -159v-737h-465v582q0 106 -58 166q-69 69 -189 69h-3q-127 0 -197 -76q-66 -72 -65 -176v-565h-465z" />
<glyph unicode="o" horiz-adv-x="1755" d="M98 551v29q0 135 47 243q68 152 213 240q178 108 480 108h6h69q313 0 496 -108q145 -86 207 -240q41 -111 41 -241v-33q0 -131 -41 -240q-59 -147 -209 -233q-180 -106 -496 -107h-65q-305 0 -486 107q-147 84 -215 233q-47 104 -47 242zM582 575q0 -113 55 -186 q70 -98 231 -98h19q154 0 229 100q57 74 58 184q0 111 -58 185q-74 94 -229 94h-19q-162 0 -231 -94q-55 -72 -55 -185z" />
<glyph unicode="p" horiz-adv-x="1792" d="M160 -389v1530h463v-144q53 57 151 103q135 63 307 63h21q307 0 463 -180q63 -78 94 -179.5t31 -211.5v-35q0 -102 -32 -203.5t-97 -181.5q-156 -195 -471 -195h-23q-170 0 -301 64q-76 33 -141 94v-524h-465zM623 565q0 -45 15 -92t46 -84q74 -88 225 -88h17 q152 0 225 92q55 72 55 174v8q0 104 -55 177q-74 90 -225 90h-17q-150 0 -225 -90q-31 -37 -46 -84t-15 -93v-10z" />
<glyph unicode="q" horiz-adv-x="1792" d="M104 557v35q0 106 33 207.5t101 179.5q160 184 460 184h23q180 0 321 -61q86 -41 146 -101q23 72 31 140h413v-1530h-465v528q-45 -53 -131 -96q-135 -66 -303 -66h-26q-305 0 -467 187q-70 80 -103 181t-33 212zM588 569q0 -104 57 -176q72 -92 223 -92h19q150 0 223 88 q59 72 59 178v11q0 47 -14 93t-45 83q-74 88 -223 88h-19q-147 0 -223 -90q-57 -68 -57 -177v-6z" />
<glyph unicode="r" horiz-adv-x="1505" d="M160 0v1141h461v-187q47 78 114 127q113 84 273 84h14q207 0 309 -131q88 -113 88 -319q0 -53 -4 -148h-469v35q0 109 -33.5 162t-117.5 53t-127 -57.5t-43 -163.5v-596h-465z" />
<glyph unicode="s" horiz-adv-x="1581" d="M92 350v8h498q6 -41 39 -67q51 -41 166 -41h4q106 0 159 29q39 20 39 65t-34 66q-37 23 -168 30l-170 13q-281 14 -410 116q-109 86 -109 236v12q0 78 29 139.5t96 106.5q156 102 512 102h52q389 0 548 -116q115 -84 115 -240v-4h-483q0 2 -7 24.5t-32 40.5 q-45 35 -160 35h-8q-113 0 -154 -22q-39 -25 -39 -64q0 -43 41 -65q45 -27 152 -29l166 -6q307 -12 434 -105q59 -43 85 -101t26 -136v-19q0 -82 -24.5 -147.5t-92.5 -114.5q-160 -123 -559 -123h-55q-276 0 -441 72q-125 55 -180 158q-35 63 -35 147z" />
<glyph unicode="t" horiz-adv-x="1130" d="M76 825v316h239v344h461v-344h248v-316h-248v-366q0 -68 23.5 -94.5t91.5 -26.5h133v-338h-403q-141 0 -223.5 78t-82.5 227v520h-239z" />
<glyph unicode="u" horiz-adv-x="1744" d="M156 401v740h465v-582q0 -106 55 -164q65 -71 185 -71h3q121 0 193 75q63 70 63 176v566h465v-1141h-461v180q-57 -76 -153 -129q-145 -80 -316 -80h-20q-119 0 -211 37t-154 101q-57 59 -85.5 134.5t-28.5 157.5z" />
<glyph unicode="v" horiz-adv-x="1630" d="M23 1141h516l295 -785l294 785h480l-482 -1141h-598z" />
<glyph unicode="w" horiz-adv-x="2428" d="M31 1141h493l234 -752l225 752h508l235 -750l222 750h448l-389 -1141h-557l-229 688l-215 -688h-549z" />
<glyph unicode="x" horiz-adv-x="1595" d="M0 1141h549l262 -318l256 318h506l-457 -559l481 -582h-528l-274 328l-271 -328h-516l477 578z" />
<glyph unicode="y" horiz-adv-x="1595" d="M20 1141h512l293 -781l277 781h471l-512 -1245q-61 -147 -153.5 -216t-241.5 -69h-428v309h258q53 0 53 41q0 16 -6 39q-16 41 -29 61z" />
<glyph unicode="z" horiz-adv-x="1554" d="M121 0v301l690 516h-684v324h1286v-297l-713 -510h738v-334h-1317z" />
<glyph unicode="&#xad;" horiz-adv-x="985" d="M141 428v373h703v-373h-703z" />
<glyph unicode="&#xc0;" d="M6 0l692 1524h645l715 -1524h-522l-119 264h-805l-116 -264h-490zM546 1954h519l192 -314h-473zM762 600h506l-256 569z" />
<glyph unicode="&#xc1;" d="M6 0l692 1524h645l715 -1524h-522l-119 264h-805l-116 -264h-490zM762 600h506l-256 569zM782 1640l193 314h518l-239 -314h-472z" />
<glyph unicode="&#xc2;" d="M6 0l692 1524h645l715 -1524h-522l-119 264h-805l-116 -264h-490zM461 1636l290 318h541l293 -318h-440l-125 133l-127 -133h-432zM762 600h506l-256 569z" />
<glyph unicode="&#xc3;" d="M6 0l692 1524h645l715 -1524h-522l-119 264h-805l-116 -264h-490zM586 1632v172q0 82 41 142q49 68 149 67h4q55 0 110.5 -16.5t160.5 -59.5q16 -6 73 -28q27 -10 43 -11q29 0 29 46v79h256v-172q0 -86 -39 -139q-49 -70 -151 -70h-4q-55 0 -110.5 16.5t-160.5 59.5 l-74 31q-23 8 -43 8q-29 0 -28 -45v-80h-256zM762 600h506l-256 569z" />
<glyph unicode="&#xc4;" d="M6 0l692 1524h645l715 -1524h-522l-119 264h-805l-116 -264h-490zM510 1640v299h450v-299h-450zM762 600h506l-256 569zM1079 1640v299h451v-299h-451z" />
<glyph unicode="&#xc5;" d="M6 0l692 1524h645l715 -1524h-522l-119 264h-805l-116 -264h-490zM651 1896q0 119 78 189q96 82 289 82q197 0 293 -82q76 -70 76 -189t-76 -188q-96 -86 -293 -86q-199 0 -291 86q-76 70 -76 188zM762 600h506l-256 569zM883 1896q0 -49 33.5 -81.5t101.5 -32.5 q70 0 103.5 32.5t33.5 81.5q0 48 -33.5 78.5t-103.5 30.5q-68 0 -101.5 -30.5t-33.5 -78.5z" />
<glyph unicode="&#xc6;" horiz-adv-x="2727" d="M-37 0l950 1524h1657v-350h-876v-222h846v-362h-846v-236h891v-354h-1377v266h-571l-160 -266h-514zM834 590h374v620z" />
<glyph unicode="&#xc7;" horiz-adv-x="2131" d="M113 735v62q0 176 73 331q90 190 275 295q221 125 569 125h94q492 0 721 -205q94 -84 136 -190t42 -221v-10h-503q-6 27 -17 55q-14 43 -62 84t-130 72q-84 33 -234 32q-248 0 -362 -125q-92 -100 -92 -258v-26q0 -68 22.5 -135.5t71.5 -122.5q121 -135 362 -136 q252 0 365 109q43 39 59 84q10 29 17 55h503v-12q0 -147 -71 -276q-84 -152 -273 -242q-219 -104 -555 -105h-24v-81h8q203 0 283 -64q63 -53 63 -162v-8q1 -109 -65 -162q-88 -72 -306 -71h-305v204h246q43 0 58.5 12.5t15.5 37.5q0 47 -74 47h-180v258q-397 47 -586 297 q-76 100 -110.5 219t-34.5 233z" />
<glyph unicode="&#xc8;" horiz-adv-x="1796" d="M180 0v1524h1460v-350h-974v-222h944v-362h-944v-236h987v-354h-1473zM471 1954h519l192 -314h-473z" />
<glyph unicode="&#xc9;" horiz-adv-x="1796" d="M180 0v1524h1460v-350h-974v-222h944v-362h-944v-236h987v-354h-1473zM675 1640l193 314h518l-239 -314h-472z" />
<glyph unicode="&#xca;" horiz-adv-x="1796" d="M180 0v1524h1460v-350h-974v-222h944v-362h-944v-236h987v-354h-1473zM353 1636l290 318h541l293 -318h-440l-125 133l-127 -133h-432z" />
<glyph unicode="&#xcb;" horiz-adv-x="1796" d="M180 0v1524h1460v-350h-974v-222h944v-362h-944v-236h987v-354h-1473zM402 1640v299h450v-299h-450zM971 1640v299h451v-299h-451z" />
<glyph unicode="&#xcc;" horiz-adv-x="849" d="M-48 1954h519l192 -314h-473zM180 0v1524h490v-1524h-490z" />
<glyph unicode="&#xcd;" horiz-adv-x="849" d="M180 0v1524h490v-1524h-490zM188 1640l193 314h518l-239 -314h-472z" />
<glyph unicode="&#xce;" horiz-adv-x="849" d="M-133 1636l290 318h541l293 -318h-440l-125 133l-127 -133h-432zM180 0v1524h490v-1524h-490z" />
<glyph unicode="&#xcf;" horiz-adv-x="849" d="M-84 1640v299h450v-299h-450zM180 0v1524h490v-1524h-490zM485 1640v299h451v-299h-451z" />
<glyph unicode="&#xd1;" horiz-adv-x="2191" d="M180 0v1524h500l856 -914v914h475v-1524h-473l-881 930v-930h-477zM676 1632v172q0 82 41 142q49 68 149 67h4q55 0 110.5 -16.5t160.5 -59.5q16 -6 73 -28q27 -10 43 -11q29 0 29 46v79h256v-172q0 -86 -39 -139q-49 -70 -151 -70h-4q-55 0 -110.5 16.5t-160.5 59.5 l-74 31q-23 8 -43 8q-29 0 -28 -45v-80h-256z" />
<glyph unicode="&#xd2;" horiz-adv-x="2213" d="M113 735v62q0 190 77 340q92 184 287 288q225 123 584 123h92q356 0 586 -123q190 -104 286 -288q76 -152 76 -340v-62q0 -133 -44 -264t-142 -235q-246 -260 -762 -261h-92q-356 0 -584 127q-197 109 -287 295q-78 154 -77 338zM623 754q0 -158 94 -258 q125 -135 391 -136q274 0 395 136q88 98 88 258v26q0 160 -88 256q-121 131 -395 131q-270 0 -395 -131q-90 -96 -90 -256v-26zM632 1954h519l192 -314h-473z" />
<glyph unicode="&#xd3;" horiz-adv-x="2213" d="M113 735v62q0 190 77 340q92 184 287 288q225 123 584 123h92q356 0 586 -123q190 -104 286 -288q76 -152 76 -340v-62q0 -133 -44 -264t-142 -235q-246 -260 -762 -261h-92q-356 0 -584 127q-197 109 -287 295q-78 154 -77 338zM623 754q0 -158 94 -258 q125 -135 391 -136q274 0 395 136q88 98 88 258v26q0 160 -88 256q-121 131 -395 131q-270 0 -395 -131q-90 -96 -90 -256v-26zM870 1640l193 314h518l-239 -314h-472z" />
<glyph unicode="&#xd4;" horiz-adv-x="2213" d="M113 735v62q0 190 77 340q92 184 287 288q225 123 584 123h92q356 0 586 -123q190 -104 286 -288q76 -152 76 -340v-62q0 -133 -44 -264t-142 -235q-246 -260 -762 -261h-92q-356 0 -584 127q-197 109 -287 295q-78 154 -77 338zM547 1636l290 318h541l293 -318h-440 l-125 133l-127 -133h-432zM623 754q0 -158 94 -258q125 -135 391 -136q274 0 395 136q88 98 88 258v26q0 160 -88 256q-121 131 -395 131q-270 0 -395 -131q-90 -96 -90 -256v-26z" />
<glyph unicode="&#xd5;" horiz-adv-x="2213" d="M113 735v62q0 190 77 340q92 184 287 288q225 123 584 123h92q356 0 586 -123q190 -104 286 -288q76 -152 76 -340v-62q0 -133 -44 -264t-142 -235q-246 -260 -762 -261h-92q-356 0 -584 127q-197 109 -287 295q-78 154 -77 338zM623 754q0 -158 94 -258 q125 -135 391 -136q274 0 395 136q88 98 88 258v26q0 160 -88 256q-121 131 -395 131q-270 0 -395 -131q-90 -96 -90 -256v-26zM674 1632v172q0 82 41 142q49 68 149 67h4q55 0 110.5 -16.5t160.5 -59.5q16 -6 73 -28q27 -10 43 -11q29 0 29 46v79h256v-172q0 -86 -39 -139 q-49 -70 -151 -70h-4q-55 0 -110.5 16.5t-160.5 59.5l-74 31q-23 8 -43 8q-29 0 -28 -45v-80h-256z" />
<glyph unicode="&#xd6;" horiz-adv-x="2213" d="M113 735v62q0 190 77 340q92 184 287 288q225 123 584 123h92q356 0 586 -123q190 -104 286 -288q76 -152 76 -340v-62q0 -133 -44 -264t-142 -235q-246 -260 -762 -261h-92q-356 0 -584 127q-197 109 -287 295q-78 154 -77 338zM596 1640v299h450v-299h-450zM623 754 q0 -158 94 -258q125 -135 391 -136q274 0 395 136q88 98 88 258v26q0 160 -88 256q-121 131 -395 131q-270 0 -395 -131q-90 -96 -90 -256v-26zM1165 1640v299h451v-299h-451z" />
<glyph unicode="&#xd9;" horiz-adv-x="2160" d="M172 774v750h487v-744q0 -166 74 -264q96 -135 346 -135h11q248 0 344 135q70 96 69 264v744h488v-750q0 -193 -54 -340q-74 -205 -247 -317q-217 -139 -576 -140h-59q-373 1 -590 140q-170 109 -244 317q-49 139 -49 340zM608 1954h519l192 -314h-473z" />
<glyph unicode="&#xda;" horiz-adv-x="2160" d="M172 774v750h487v-744q0 -166 74 -264q96 -135 346 -135h11q248 0 344 135q70 96 69 264v744h488v-750q0 -193 -54 -340q-74 -205 -247 -317q-217 -139 -576 -140h-59q-373 1 -590 140q-170 109 -244 317q-49 139 -49 340zM843 1640l193 314h518l-239 -314h-472z" />
<glyph unicode="&#xdb;" horiz-adv-x="2160" d="M172 774v750h487v-744q0 -166 74 -264q96 -135 346 -135h11q248 0 344 135q70 96 69 264v744h488v-750q0 -193 -54 -340q-74 -205 -247 -317q-217 -139 -576 -140h-59q-373 1 -590 140q-170 109 -244 317q-49 139 -49 340zM523 1636l290 318h541l293 -318h-440l-125 133 l-127 -133h-432z" />
<glyph unicode="&#xdc;" horiz-adv-x="2160" d="M172 774v750h487v-744q0 -166 74 -264q96 -135 346 -135h11q248 0 344 135q70 96 69 264v744h488v-750q0 -193 -54 -340q-74 -205 -247 -317q-217 -139 -576 -140h-59q-373 1 -590 140q-170 109 -244 317q-49 139 -49 340zM572 1640v299h450v-299h-450zM1141 1640v299 h451v-299h-451z" />
<glyph unicode="&#xdd;" horiz-adv-x="1978" d="M-18 1524h600l438 -572l440 572h537l-752 -975v-549h-487v551zM782 1640l193 314h518l-239 -314h-472z" />
<glyph unicode="&#xdf;" horiz-adv-x="1777" d="M160 0v1106q0 92 22.5 171t85.5 142q162 162 596 162h35q383 0 549 -121q127 -92 127 -248v-10q0 -123 -86 -203q-76 -70 -193 -94q148 -20 248 -102q135 -111 135 -303v-23q0 -217 -131 -334q-160 -143 -524 -143h-270v324h229q127 0 176 53q39 41 39 119v2 q0 74 -39 112q-51 51 -176 52h-229v321h184q102 0 149 51q31 37 31 92v2q0 63 -41 97q-59 45 -196 45h-13q-141 0 -196 -56q-47 -47 -47 -145v-1069h-465z" />
<glyph unicode="&#xe0;" horiz-adv-x="1660" d="M98 342v8q0 162 113 240q117 84 410 108l317 25q47 4 65.5 20.5t18.5 47.5v2q0 49 -35 69q-51 31 -178 31h-6q-129 0 -176 -43q-33 -31 -33 -72h-467v2q0 90 37 160q55 102 178 158q164 70 428 69h66q393 0 544 -133q57 -51 77 -114.5t20 -141.5v-364q0 -45 14 -62.5 t59 -17.5h54v-334h-377q-76 0 -131 51q-43 37 -62 99q-61 -66 -133 -105q-127 -68 -307 -68h-35q-227 0 -348 107q-55 49 -84 115.5t-29 142.5zM332 1575h512l190 -315h-455zM561 356q0 -51 43 -80.5t131 -29.5q143 0 223 76q33 31 48.5 68.5t15.5 72.5v72q-72 -18 -229 -46 q-137 -23 -183 -49q-49 -27 -49 -80v-4z" />
<glyph unicode="&#xe1;" horiz-adv-x="1660" d="M98 342v8q0 162 113 240q117 84 410 108l317 25q47 4 65.5 20.5t18.5 47.5v2q0 49 -35 69q-51 31 -178 31h-6q-129 0 -176 -43q-33 -31 -33 -72h-467v2q0 90 37 160q55 102 178 158q164 70 428 69h66q393 0 544 -133q57 -51 77 -114.5t20 -141.5v-364q0 -45 14 -62.5 t59 -17.5h54v-334h-377q-76 0 -131 51q-43 37 -62 99q-61 -66 -133 -105q-127 -68 -307 -68h-35q-227 0 -348 107q-55 49 -84 115.5t-29 142.5zM561 356q0 -51 43 -80.5t131 -29.5q143 0 223 76q33 31 48.5 68.5t15.5 72.5v72q-72 -18 -229 -46q-137 -23 -183 -49 q-49 -27 -49 -80v-4zM572 1260l190 315h512l-248 -315h-454z" />
<glyph unicode="&#xe2;" horiz-adv-x="1660" d="M98 342v8q0 162 113 240q117 84 410 108l317 25q47 4 65.5 20.5t18.5 47.5v2q0 49 -35 69q-51 31 -178 31h-6q-129 0 -176 -43q-33 -31 -33 -72h-467v2q0 90 37 160q55 102 178 158q164 70 428 69h66q393 0 544 -133q57 -51 77 -114.5t20 -141.5v-364q0 -45 14 -62.5 t59 -17.5h54v-334h-377q-76 0 -131 51q-43 37 -62 99q-61 -66 -133 -105q-127 -68 -307 -68h-35q-227 0 -348 107q-55 49 -84 115.5t-29 142.5zM250 1257l280 318h549l285 -318h-443l-118 136l-119 -136h-434zM561 356q0 -51 43 -80.5t131 -29.5q143 0 223 76 q33 31 48.5 68.5t15.5 72.5v72q-72 -18 -229 -46q-137 -23 -183 -49q-49 -27 -49 -80v-4z" />
<glyph unicode="&#xe3;" horiz-adv-x="1660" d="M98 342v8q0 162 113 240q117 84 410 108l317 25q47 4 65.5 20.5t18.5 47.5v2q0 49 -35 69q-51 31 -178 31h-6q-129 0 -176 -43q-33 -31 -33 -72h-467v2q0 90 37 160q55 102 178 158q164 70 428 69h66q393 0 544 -133q57 -51 77 -114.5t20 -141.5v-364q0 -45 14 -62.5 t59 -17.5h54v-334h-377q-76 0 -131 51q-43 37 -62 99q-61 -66 -133 -105q-127 -68 -307 -68h-35q-227 0 -348 107q-55 49 -84 115.5t-29 142.5zM387 1251v176q0 84 39 140q49 70 147 69h7q61 0 112 -16q49 -18 96 -41l39 -18l70 -31q25 -10 37 -10q31 0 31 43v84h256v-177 q0 -84 -39 -139q-49 -70 -150 -69h-4q-57 0 -106.5 15t-143.5 58l-67 33q-25 10 -39 10q-31 0 -31 -45v-82h-254zM561 356q0 -51 43 -80.5t131 -29.5q143 0 223 76q33 31 48.5 68.5t15.5 72.5v72q-72 -18 -229 -46q-137 -23 -183 -49q-49 -27 -49 -80v-4z" />
<glyph unicode="&#xe4;" horiz-adv-x="1660" d="M98 342v8q0 162 113 240q117 84 410 108l317 25q47 4 65.5 20.5t18.5 47.5v2q0 49 -35 69q-51 31 -178 31h-6q-129 0 -176 -43q-33 -31 -33 -72h-467v2q0 90 37 160q55 102 178 158q164 70 428 69h66q393 0 544 -133q57 -51 77 -114.5t20 -141.5v-364q0 -45 14 -62.5 t59 -17.5h54v-334h-377q-76 0 -131 51q-43 37 -62 99q-61 -66 -133 -105q-127 -68 -307 -68h-35q-227 0 -348 107q-55 49 -84 115.5t-29 142.5zM301 1255v299h444v-299h-444zM561 356q0 -51 43 -80.5t131 -29.5q143 0 223 76q33 31 48.5 68.5t15.5 72.5v72q-72 -18 -229 -46 q-137 -23 -183 -49q-49 -27 -49 -80v-4zM860 1255v299h445v-299h-445z" />
<glyph unicode="&#xe5;" horiz-adv-x="1660" d="M98 342v8q0 162 113 240q117 84 410 108l317 25q47 4 65.5 20.5t18.5 47.5v2q0 49 -35 69q-51 31 -178 31h-6q-129 0 -176 -43q-33 -31 -33 -72h-467v2q0 90 37 160q55 102 178 158q164 70 428 69h66q393 0 544 -133q57 -51 77 -114.5t20 -141.5v-364q0 -45 14 -62.5 t59 -17.5h54v-334h-377q-76 0 -131 51q-43 37 -62 99q-61 -66 -133 -105q-127 -68 -307 -68h-35q-227 0 -348 107q-55 49 -84 115.5t-29 142.5zM440 1518q0 118 76 188q92 82 287 82t291 -82q76 -70 75 -188q0 -121 -75 -189q-92 -86 -291 -86q-195 0 -287 86 q-76 68 -76 189zM561 356q0 -51 43 -80.5t131 -29.5q143 0 223 76q33 31 48.5 68.5t15.5 72.5v72q-72 -18 -229 -46q-137 -23 -183 -49q-49 -27 -49 -80v-4zM672 1518q0 -50 32.5 -81.5t98.5 -31.5q68 0 100.5 31.5t32.5 81.5q0 49 -33 78.5t-100 29.5q-66 0 -98.5 -30.5 t-32.5 -77.5z" />
<glyph unicode="&#xe6;" horiz-adv-x="2627" d="M98 342v8q0 162 113 240q117 84 403 108l308 25q47 4 65.5 20.5t18.5 47.5q0 49 -33 69q-47 31 -174 31h-4q-123 0 -170 -43q-33 -31 -33 -72h-465v4q0 152 100 244q152 141 535 141h67q328 0 461 -118q141 121 424 120h90q418 0 592 -200q133 -156 133 -445v-41h-1042 q14 -104 87 -159.5t222 -55.5q125 0 195 41q29 16 37 31l12 18h485q0 -51 -28.5 -113.5t-94.5 -117.5q-180 -154 -579 -154h-82q-227 0 -391 70q-139 57 -209 152q-61 -88 -168 -142q-141 -74 -346 -74h-35q-248 0 -377 107q-117 94 -117 258zM561 356q0 -51 41 -80.5 t125 -29.5q139 0 215 76q31 31 47.5 68.5t16.5 72.5v72q-80 -20 -222 -46q-131 -23 -176 -49q-47 -29 -47 -80v-4zM1491 700h545q0 82 -51 131q-68 61 -220 62q-133 0 -196 -51q-61 -49 -78 -142z" />
<glyph unicode="&#xe7;" horiz-adv-x="1703" d="M100 561v29q0 98 30 196.5t99 178.5q182 207 582 206h88q279 0 461 -88q141 -70 201 -192q45 -92 45 -195v-2h-486q-6 51 -49 92q-72 68 -205 68h-18q-141 0 -209 -88q-55 -70 -55 -186v-2q0 -115 57 -193q68 -94 211 -94h18q141 0 205 74q23 27 34 53t11 43h486 q0 -111 -45 -203q-59 -127 -199 -199q-174 -90 -449 -90h-34v-75h8q203 0 282 -64q63 -53 64 -162v-8q0 -109 -66 -162q-88 -72 -305 -71h-305v204h246q45 0 60.5 12.5t15.5 37.5q0 23 -16.5 35t-59.5 12h-180v256q-299 45 -426 239q-96 143 -97 338z" />
<glyph unicode="&#xe8;" horiz-adv-x="1730" d="M100 555v29q0 242 140 391q178 193 571 192h90q424 0 600 -200q74 -86 102.5 -198t28.5 -247v-41h-1054q16 -100 86 -155q76 -59 231 -60q135 0 199 41q27 14 36 33l13 25h485q-4 -82 -47 -152q-59 -102 -203 -164q-180 -78 -456 -78h-84q-410 0 -594 195 q-143 150 -144 389zM385 1575h512l190 -315h-455zM584 705h553q0 80 -52 124q-72 61 -223 62q-133 0 -196.5 -48t-81.5 -138z" />
<glyph unicode="&#xe9;" horiz-adv-x="1730" d="M100 555v29q0 242 140 391q178 193 571 192h90q424 0 600 -200q74 -86 102.5 -198t28.5 -247v-41h-1054q16 -100 86 -155q76 -59 231 -60q135 0 199 41q27 14 36 33l13 25h485q-4 -82 -47 -152q-59 -102 -203 -164q-180 -78 -456 -78h-84q-410 0 -594 195 q-143 150 -144 389zM584 705h553q0 80 -52 124q-72 61 -223 62q-133 0 -196.5 -48t-81.5 -138zM631 1260l190 315h512l-248 -315h-454z" />
<glyph unicode="&#xea;" horiz-adv-x="1730" d="M100 555v29q0 242 140 391q178 193 571 192h90q424 0 600 -200q74 -86 102.5 -198t28.5 -247v-41h-1054q16 -100 86 -155q76 -59 231 -60q135 0 199 41q27 14 36 33l13 25h485q-4 -82 -47 -152q-59 -102 -203 -164q-180 -78 -456 -78h-84q-410 0 -594 195 q-143 150 -144 389zM305 1257l280 318h549l285 -318h-443l-118 136l-119 -136h-434zM584 705h553q0 80 -52 124q-72 61 -223 62q-133 0 -196.5 -48t-81.5 -138z" />
<glyph unicode="&#xeb;" horiz-adv-x="1730" d="M100 555v29q0 242 140 391q178 193 571 192h90q424 0 600 -200q74 -86 102.5 -198t28.5 -247v-41h-1054q16 -100 86 -155q76 -59 231 -60q135 0 199 41q27 14 36 33l13 25h485q-4 -82 -47 -152q-59 -102 -203 -164q-180 -78 -456 -78h-84q-410 0 -594 195 q-143 150 -144 389zM356 1255v299h444v-299h-444zM584 705h553q0 80 -52 124q-72 61 -223 62q-133 0 -196.5 -48t-81.5 -138zM915 1255v299h445v-299h-445z" />
<glyph unicode="&#xec;" horiz-adv-x="784" d="M-63 1575h495l184 -315h-454zM160 0v1141h465v-1141h-465z" />
<glyph unicode="&#xed;" horiz-adv-x="784" d="M160 0v1141h465v-1141h-465zM170 1260l180 315h496l-223 -315h-453z" />
<glyph unicode="&#xee;" horiz-adv-x="784" d="M-113 1257l238 318h539l239 -318h-411l-101 140l-98 -140h-406zM160 0v1141h465v-1141h-465z" />
<glyph unicode="&#xef;" horiz-adv-x="784" d="M-47 1255v299h385v-299h-385zM160 0v1141h465v-1141h-465zM446 1255v299h385v-299h-385z" />
<glyph unicode="&#xf1;" horiz-adv-x="1757" d="M160 0v1141h461v-180q63 78 157 129q147 80 318 79h20q121 0 213 -36.5t156 -100.5q57 -59 87 -136t30 -159v-737h-465v582q0 106 -58 166q-70 70 -192 69q-127 0 -197 -76q-66 -72 -65 -176v-565h-465zM465 1251v176q0 84 39 140q49 70 147 69h7q61 0 112 -16 q49 -18 96 -41l39 -18l70 -31q25 -10 37 -10q31 0 31 43v84h256v-177q0 -84 -39 -139q-49 -70 -150 -69h-4q-57 0 -106.5 15t-143.5 58l-67 33q-25 10 -39 10q-31 0 -31 -45v-82h-254z" />
<glyph unicode="&#xf2;" horiz-adv-x="1755" d="M98 551v29q0 135 47 243q68 152 213 240q180 109 486 108h69q313 0 496 -108q145 -86 207 -240q41 -111 41 -241v-33q0 -131 -41 -240q-59 -147 -209 -233q-180 -106 -496 -107h-65q-305 0 -486 107q-147 84 -215 233q-47 104 -47 242zM404 1575h512l190 -315h-455z M582 575q0 -113 55 -186q70 -98 231 -98h19q154 0 229 100q57 74 58 184q0 111 -58 185q-74 94 -229 94h-19q-162 0 -231 -94q-55 -72 -55 -185z" />
<glyph unicode="&#xf3;" horiz-adv-x="1755" d="M98 551v29q0 135 47 243q68 152 213 240q180 109 486 108h69q313 0 496 -108q145 -86 207 -240q41 -111 41 -241v-33q0 -131 -41 -240q-59 -147 -209 -233q-180 -106 -496 -107h-65q-305 0 -486 107q-147 84 -215 233q-47 104 -47 242zM582 575q0 -113 55 -186 q70 -98 231 -98h19q154 0 229 100q57 74 58 184q0 111 -58 185q-74 94 -229 94h-19q-162 0 -231 -94q-55 -72 -55 -185zM650 1260l190 315h512l-248 -315h-454z" />
<glyph unicode="&#xf4;" horiz-adv-x="1755" d="M98 551v29q0 135 47 243q68 152 213 240q180 109 486 108h69q313 0 496 -108q145 -86 207 -240q41 -111 41 -241v-33q0 -131 -41 -240q-59 -147 -209 -233q-180 -106 -496 -107h-65q-305 0 -486 107q-147 84 -215 233q-47 104 -47 242zM324 1257l280 318h549l285 -318 h-443l-118 136l-119 -136h-434zM582 575q0 -113 55 -186q70 -98 231 -98h19q154 0 229 100q57 74 58 184q0 111 -58 185q-74 94 -229 94h-19q-162 0 -231 -94q-55 -72 -55 -185z" />
<glyph unicode="&#xf5;" horiz-adv-x="1755" d="M98 551v29q0 135 47 243q68 152 213 240q180 109 486 108h69q313 0 496 -108q145 -86 207 -240q41 -111 41 -241v-33q0 -131 -41 -240q-59 -147 -209 -233q-180 -106 -496 -107h-65q-305 0 -486 107q-147 84 -215 233q-47 104 -47 242zM461 1251v176q0 84 39 140 q49 70 147 69h7q61 0 112 -16q49 -18 96 -41l39 -18l70 -31q25 -10 37 -10q31 0 31 43v84h256v-177q0 -84 -39 -139q-49 -70 -150 -69h-4q-57 0 -106.5 15t-143.5 58l-67 33q-25 10 -39 10q-31 0 -31 -45v-82h-254zM582 575q0 -113 55 -186q70 -98 231 -98h19q154 0 229 100 q57 74 58 184q0 111 -58 185q-74 94 -229 94h-19q-162 0 -231 -94q-55 -72 -55 -185z" />
<glyph unicode="&#xf6;" horiz-adv-x="1755" d="M98 551v29q0 135 47 243q68 152 213 240q180 109 486 108h69q313 0 496 -108q145 -86 207 -240q41 -111 41 -241v-33q0 -131 -41 -240q-59 -147 -209 -233q-180 -106 -496 -107h-65q-305 0 -486 107q-147 84 -215 233q-47 104 -47 242zM375 1255v299h444v-299h-444z M582 575q0 -113 55 -186q70 -98 231 -98h19q154 0 229 100q57 74 58 184q0 111 -58 185q-74 94 -229 94h-19q-162 0 -231 -94q-55 -72 -55 -185zM934 1255v299h445v-299h-445z" />
<glyph unicode="&#xf9;" horiz-adv-x="1744" d="M156 401v740h465v-582q0 -106 55 -164q66 -72 188 -71q121 0 193 75q63 70 63 176v566h465v-1141h-461v180q-57 -76 -153 -129q-145 -80 -316 -80h-20q-119 0 -211 37t-154 101q-57 59 -85.5 134.5t-28.5 157.5zM398 1575h512l190 -315h-455z" />
<glyph unicode="&#xfa;" horiz-adv-x="1744" d="M156 401v740h465v-582q0 -106 55 -164q66 -72 188 -71q121 0 193 75q63 70 63 176v566h465v-1141h-461v180q-57 -76 -153 -129q-145 -80 -316 -80h-20q-119 0 -211 37t-154 101q-57 59 -85.5 134.5t-28.5 157.5zM641 1260l190 315h512l-248 -315h-454z" />
<glyph unicode="&#xfb;" horiz-adv-x="1744" d="M156 401v740h465v-582q0 -106 55 -164q66 -72 188 -71q121 0 193 75q63 70 63 176v566h465v-1141h-461v180q-57 -76 -153 -129q-145 -80 -316 -80h-20q-119 0 -211 37t-154 101q-57 59 -85.5 134.5t-28.5 157.5zM318 1257l280 318h549l285 -318h-443l-118 136l-119 -136 h-434z" />
<glyph unicode="&#xfc;" horiz-adv-x="1744" d="M156 401v740h465v-582q0 -106 55 -164q66 -72 188 -71q121 0 193 75q63 70 63 176v566h465v-1141h-461v180q-57 -76 -153 -129q-145 -80 -316 -80h-20q-119 0 -211 37t-154 101q-57 59 -85.5 134.5t-28.5 157.5zM369 1255v299h444v-299h-444zM928 1255v299h445v-299h-445 z" />
<glyph unicode="&#xfd;" horiz-adv-x="1595" d="M20 1141h512l293 -781l277 781h471l-512 -1245q-61 -147 -153.5 -216t-241.5 -69h-428v309h258q53 0 53 41q0 16 -6 39q-16 41 -29 61zM590 1260l190 315h512l-248 -315h-454z" />
<glyph unicode="&#xff;" horiz-adv-x="1595" d="M20 1141h512l293 -781l277 781h471l-512 -1245q-61 -147 -153.5 -216t-241.5 -69h-428v309h258q53 0 53 41q0 16 -6 39q-16 41 -29 61zM315 1255v299h444v-299h-444zM874 1255v299h445v-299h-445z" />
<glyph unicode="&#x178;" horiz-adv-x="1978" d="M-18 1524h600l438 -572l440 572h537l-752 -975v-549h-487v551zM510 1640v299h450v-299h-450zM1079 1640v299h451v-299h-451z" />
<glyph unicode="&#x2000;" horiz-adv-x="1083" />
<glyph unicode="&#x2001;" horiz-adv-x="2167" />
<glyph unicode="&#x2002;" horiz-adv-x="1083" />
<glyph unicode="&#x2003;" horiz-adv-x="2167" />
<glyph unicode="&#x2004;" horiz-adv-x="722" />
<glyph unicode="&#x2005;" horiz-adv-x="541" />
<glyph unicode="&#x2006;" horiz-adv-x="361" />
<glyph unicode="&#x2007;" horiz-adv-x="361" />
<glyph unicode="&#x2008;" horiz-adv-x="270" />
<glyph unicode="&#x2009;" horiz-adv-x="433" />
<glyph unicode="&#x200a;" horiz-adv-x="120" />
<glyph unicode="&#x2010;" horiz-adv-x="985" d="M141 428v373h703v-373h-703z" />
<glyph unicode="&#x2011;" horiz-adv-x="985" d="M141 428v373h703v-373h-703z" />
<glyph unicode="&#x2012;" horiz-adv-x="985" d="M141 428v373h703v-373h-703z" />
<glyph unicode="&#x2013;" horiz-adv-x="1708" d="M141 461v307h1426v-307h-1426z" />
<glyph unicode="&#x2014;" horiz-adv-x="2330" d="M141 428v373h2048v-373h-2048z" />
<glyph unicode="&#x202f;" horiz-adv-x="433" />
<glyph unicode="&#x205f;" horiz-adv-x="541" />
<glyph unicode="&#x25fc;" horiz-adv-x="1136" d="M0 0v1137h1137v-1137h-1137z" />
</font>
</defs>
</svg>
